<?xml version="1.0" encoding="UTF-8"?>
<!-- Generated by Pixelmator Pro 3.6.14 -->
<svg viewBox="0 0 1024 1024" xmlns="http://www.w3.org/2000/svg" xmlns:xlink="http://www.w3.org/1999/xlink">
    <g id="text">
        <path id="J" fill="#000000" fill-rule="evenodd" stroke="none" d="M 431.773438 693.449219 L 431.773438 343.070313 L 536.445313 343.070313 L 536.445313 691.75 C 536.445313 734.343994 529.082092 768.10144 514.355469 793.023438 C 489.433472 835.164307 444.461243 856.234375 379.4375 856.234375 C 314.413727 856.234375 270.800903 839.18573 248.597656 805.087891 C 226.394424 770.990051 215.292969 724.488586 215.292969 665.582031 L 215.292969 654.027344 L 314.1875 654.027344 L 314.1875 665.582031 C 315.09375 704.324402 319.341766 731.568237 326.931641 747.314453 C 334.521515 763.060608 350.777222 770.933594 375.699219 770.933594 C 400.394653 770.933594 416.70697 762.324341 424.636719 745.105469 C 429.394562 734.910095 431.773438 717.691528 431.773438 693.449219 Z"/>
        <path id="B" fill="#000000" fill-rule="evenodd" stroke="none" d="M 626.251953 772 L 431.853516 772 L 431.853516 343.042969 L 640.220703 343.042969 C 692.797791 343.819031 730.047424 359.048706 751.970703 388.732422 C 765.163452 406.969482 771.759766 428.79541 771.759766 454.210938 C 771.759766 480.402466 765.163452 501.452393 751.970703 517.361328 C 744.598267 526.285889 733.733765 534.434204 719.376953 541.806641 C 741.300232 549.761108 757.839478 562.371704 768.995117 579.638672 C 780.150757 596.90564 785.728516 617.858643 785.728516 642.498047 C 785.728516 667.913574 779.326233 690.709534 766.521484 710.886719 C 758.373047 724.273499 748.187561 735.526001 735.964844 744.644531 C 722.190063 755.121155 705.941833 762.299438 687.219727 766.179688 C 668.49762 770.059937 648.175232 772 626.251953 772 Z M 624.214844 583.130859 L 517.412109 583.130859 L 517.412109 697.5 L 622.759766 697.5 C 641.578857 697.5 656.226501 694.977905 666.703125 689.933594 C 685.716248 680.621033 695.222656 662.772278 695.222656 636.386719 C 695.222656 614.075439 686.007263 598.748779 667.576172 590.40625 C 657.293579 585.75 642.839966 583.324829 624.214844 583.130859 Z M 668.740234 501.355469 C 680.38092 494.371094 686.201172 481.857544 686.201172 463.814453 C 686.201172 443.831299 678.440796 430.638672 662.919922 424.236328 C 649.533142 419.774048 632.460388 417.542969 611.701172 417.542969 L 517.412109 417.542969 L 517.412109 512.123047 L 622.759766 512.123047 C 641.578857 512.123047 656.905518 508.533936 668.740234 501.355469 Z"/>
    </g>
    <g id="header">
        <filter id="filter1" x="0" y="0" width="1024" height="1024" filterUnits="userSpaceOnUse" primitiveUnits="userSpaceOnUse" color-interpolation-filters="sRGB">
            <feGaussianBlur stdDeviation="0"/>
            <feOffset dx="-0" dy="10" result="offsetblur"/>
            <feFlood flood-color="#000000" flood-opacity="0.153325"/>
            <feComposite in2="offsetblur" operator="in"/>
            <feMerge>
                <feMergeNode/>
                <feMergeNode in="SourceGraphic"/>
            </feMerge>
        </filter>
        <path id="green" fill="#5cc83b" fill-rule="evenodd" stroke="none" filter="url(#filter1)" d="M 0 180 L 1024 180 L 1024 120 L 0 120 Z"/>
        <filter id="filter2" x="0" y="0" width="1024" height="1024" filterUnits="userSpaceOnUse" primitiveUnits="userSpaceOnUse" color-interpolation-filters="sRGB">
            <feGaussianBlur stdDeviation="0"/>
            <feOffset dx="-0" dy="9" result="offsetblur"/>
            <feFlood flood-color="#000000" flood-opacity="0.153325"/>
            <feComposite in2="offsetblur" operator="in"/>
            <feMerge>
                <feMergeNode/>
                <feMergeNode in="SourceGraphic"/>
            </feMerge>
        </filter>
        <path id="red" fill="#b83b37" fill-rule="evenodd" stroke="none" filter="url(#filter2)" d="M 0 120 L 1024 120 L 1024 70 L 0 70 Z"/>
        <filter id="filter3" x="0" y="0" width="1024" height="1024" filterUnits="userSpaceOnUse" primitiveUnits="userSpaceOnUse" color-interpolation-filters="sRGB">
            <feGaussianBlur stdDeviation="0"/>
            <feOffset dx="-0" dy="8" result="offsetblur"/>
            <feFlood flood-color="#000000" flood-opacity="0.153325"/>
            <feComposite in2="offsetblur" operator="in"/>
            <feMerge>
                <feMergeNode/>
                <feMergeNode in="SourceGraphic"/>
            </feMerge>
        </filter>
        <path id="blue" fill="#4294f7" fill-rule="evenodd" stroke="none" filter="url(#filter3)" d="M 0 70 L 1024 70 L 1024 30 L 0 30 Z"/>
        <filter id="filter4" x="0" y="0" width="1024" height="1024" filterUnits="userSpaceOnUse" primitiveUnits="userSpaceOnUse" color-interpolation-filters="sRGB">
            <feGaussianBlur stdDeviation="0"/>
            <feOffset dx="-0" dy="7" result="offsetblur"/>
            <feFlood flood-color="#000000" flood-opacity="0.153325"/>
            <feComposite in2="offsetblur" operator="in"/>
            <feMerge>
                <feMergeNode/>
                <feMergeNode in="SourceGraphic"/>
            </feMerge>
        </filter>
        <path id="yellow" fill="#fdf451" fill-rule="evenodd" stroke="none" filter="url(#filter4)" d="M 0 30 L 1024 30 L 1024 0 L 0 0 Z"/>
    </g>
</svg>
