<?xml version="1.0" encoding="UTF-8"?>
<!-- Generated by Pixelmator Pro 3.6.14 -->
<svg width="571" height="514" viewBox="0 0 571 514" xmlns="http://www.w3.org/2000/svg" xmlns:xlink="http://www.w3.org/1999/xlink">
    <g id="text">
        <path id="J" fill="#000000" fill-rule="evenodd" stroke="none" d="M 216.773438 350.449219 L 216.773438 0.070313 L 321.445313 0.070313 L 321.445313 348.75 C 321.445313 391.343964 314.082092 425.10144 299.355469 450.023438 C 274.433472 492.164276 229.461243 513.234375 164.4375 513.234375 C 99.413727 513.234375 55.800903 496.18573 33.597656 462.087891 C 11.394424 427.990051 0.292969 381.488586 0.292969 322.582031 L 0.292969 311.027344 L 99.1875 311.027344 L 99.1875 322.582031 C 100.09375 361.324402 104.341766 388.568268 111.931641 404.314453 C 119.521515 420.060608 135.777222 427.933594 160.699219 427.933594 C 185.394653 427.933594 201.70697 419.32431 209.636719 402.105469 C 214.394562 391.910095 216.773438 374.691528 216.773438 350.449219 Z"/>
        <path id="B" fill="#000000" fill-rule="evenodd" stroke="none" d="M 411.251953 429 L 216.853516 429 L 216.853516 0.042969 L 425.220703 0.042969 C 477.797791 0.819031 515.047424 16.048706 536.970703 45.732422 C 550.163452 63.969482 556.759766 85.79541 556.759766 111.210938 C 556.759766 137.402466 550.163452 158.452393 536.970703 174.361328 C 529.598267 183.285858 518.733765 191.434204 504.376953 198.806641 C 526.300232 206.761108 542.839478 219.371674 553.995117 236.638672 C 565.150757 253.90567 570.728516 274.858612 570.728516 299.498047 C 570.728516 324.913544 564.326233 347.709534 551.521484 367.886719 C 543.373047 381.273499 533.187561 392.526001 520.964844 401.644531 C 507.190063 412.121155 490.941833 419.299438 472.219727 423.179688 C 453.49762 427.059937 433.175232 429 411.251953 429 Z M 409.214844 240.130859 L 302.412109 240.130859 L 302.412109 354.5 L 407.759766 354.5 C 426.578857 354.5 441.226501 351.977905 451.703125 346.933594 C 470.716248 337.621033 480.222656 319.772278 480.222656 293.386719 C 480.222656 271.075409 471.007263 255.748749 452.576172 247.40625 C 442.293579 242.749969 427.839966 240.32486 409.214844 240.130859 Z M 453.740234 158.355469 C 465.38092 151.371094 471.201172 138.857544 471.201172 120.814453 C 471.201172 100.831299 463.440796 87.638672 447.919922 81.236328 C 434.533142 76.774048 417.460388 74.542969 396.701172 74.542969 L 302.412109 74.542969 L 302.412109 169.123047 L 407.759766 169.123047 C 426.578857 169.123047 441.905518 165.533905 453.740234 158.355469 Z"/>
    </g>
    <g id="header">
        <filter id="filter1" x="0" y="0" width="571" height="514" filterUnits="userSpaceOnUse" primitiveUnits="userSpaceOnUse" color-interpolation-filters="sRGB">
            <feGaussianBlur stdDeviation="0"/>
            <feOffset dx="-0" dy="10" result="offsetblur"/>
            <feFlood flood-color="#000000" flood-opacity="0.153325"/>
            <feComposite in2="offsetblur" operator="in"/>
            <feMerge>
                <feMergeNode/>
                <feMergeNode in="SourceGraphic"/>
            </feMerge>
        </filter>
        <path id="green" fill="#5cc83b" fill-rule="evenodd" stroke="none" visibility="hidden" filter="url(#filter1)" d="M -226 -76 L 798 -76 L 798 -136 L -226 -136 Z"/>
        <filter id="filter2" x="0" y="0" width="571" height="514" filterUnits="userSpaceOnUse" primitiveUnits="userSpaceOnUse" color-interpolation-filters="sRGB">
            <feGaussianBlur stdDeviation="0"/>
            <feOffset dx="-0" dy="9" result="offsetblur"/>
            <feFlood flood-color="#000000" flood-opacity="0.153325"/>
            <feComposite in2="offsetblur" operator="in"/>
            <feMerge>
                <feMergeNode/>
                <feMergeNode in="SourceGraphic"/>
            </feMerge>
        </filter>
        <path id="red" fill="#b83b37" fill-rule="evenodd" stroke="none" visibility="hidden" filter="url(#filter2)" d="M -226 -136 L 798 -136 L 798 -186 L -226 -186 Z"/>
        <filter id="filter3" x="0" y="0" width="571" height="514" filterUnits="userSpaceOnUse" primitiveUnits="userSpaceOnUse" color-interpolation-filters="sRGB">
            <feGaussianBlur stdDeviation="0"/>
            <feOffset dx="-0" dy="8" result="offsetblur"/>
            <feFlood flood-color="#000000" flood-opacity="0.153325"/>
            <feComposite in2="offsetblur" operator="in"/>
            <feMerge>
                <feMergeNode/>
                <feMergeNode in="SourceGraphic"/>
            </feMerge>
        </filter>
        <path id="blue" fill="#4294f7" fill-rule="evenodd" stroke="none" visibility="hidden" filter="url(#filter3)" d="M -226 -186 L 798 -186 L 798 -226 L -226 -226 Z"/>
        <filter id="filter4" x="0" y="0" width="571" height="514" filterUnits="userSpaceOnUse" primitiveUnits="userSpaceOnUse" color-interpolation-filters="sRGB">
            <feGaussianBlur stdDeviation="0"/>
            <feOffset dx="-0" dy="7" result="offsetblur"/>
            <feFlood flood-color="#000000" flood-opacity="0.153325"/>
            <feComposite in2="offsetblur" operator="in"/>
            <feMerge>
                <feMergeNode/>
                <feMergeNode in="SourceGraphic"/>
            </feMerge>
        </filter>
        <path id="yellow" fill="#fdf451" fill-rule="evenodd" stroke="none" visibility="hidden" filter="url(#filter4)" d="M -226 -226 L 798 -226 L 798 -256 L -226 -256 Z"/>
    </g>
</svg>
